  0
SECTION
  2
HEADER
  9
$ACADVER
  1
AC1014
  9
$HANDSEED
  5
FFFF
  9
$MEASUREMENT
 70
     1
  0
ENDSEC
  0
SECTION
  2
TABLES
  0
TABLE
  2
VPORT
  5
8
330
0
100
AcDbSymbolTable
 70
     4
  0
VPORT
  5
2E
330
8
100
AcDbSymbolTableRecord
100
AcDbViewportTableRecord
  2
*ACTIVE
 70
     0
 10
0.0
 20
0.0
 11
1.0
 21
1.0
 12
210.0
 22
148.5
 13
0.0
 23
0.0
 14
10.0
 24
10.0
 15
10.0
 25
10.0
 16
0.0
 26
0.0
 36
1.0
 17
0.0
 27
0.0
 37
0.0
 40
341.0
 41
1.24
 42
50.0
 43
0.0
 44
0.0
 50
0.0
 51
0.0
 71
     0
 72
   100
 73
     1
 74
     3
 75
     0
 76
     0
 77
     0
 78
     0
  0
ENDTAB
  0
TABLE
  2
LTYPE
  5
5
330
0
100
AcDbSymbolTable
 70
     1
  0
LTYPE
  5
14
330
5
100
AcDbSymbolTableRecord
100
AcDbLinetypeTableRecord
  2
BYBLOCK
 70
     0
  3

 72
    65
 73
     0
 40
0.0
  0
LTYPE
  5
15
330
5
100
AcDbSymbolTableRecord
100
AcDbLinetypeTableRecord
  2
BYLAYER
 70
     0
  3

 72
    65
 73
     0
 40
0.0
  0
LTYPE
  5
16
330
5
100
AcDbSymbolTableRecord
100
AcDbLinetypeTableRecord
  2
CONTINUOUS
 70
     0
  3
Solid line
 72
    65
 73
     0
 40
0.0
  0
ENDTAB
  0
TABLE
  2
LAYER
  5
2
100
AcDbSymbolTable
 70
2
  0
LAYER
  5
50
100
AcDbSymbolTableRecord
100
AcDbLayerTableRecord
  2
0
 70
0
  6
CONTINUOUS
  0
LAYER
  5
51
100
AcDbSymbolTableRecord
100
AcDbLayerTableRecord
  2
Layer_1
 70
0
  6
CONTINUOUS
  0
ENDTAB
  0
TABLE
  2
STYLE
  5
3
330
0
100
AcDbSymbolTable
 70
     1
  0
STYLE
  5
11
330
3
100
AcDbSymbolTableRecord
100
AcDbTextStyleTableRecord
  2
STANDARD
 70
     0
 40
0.0
 41
1.0
 50
0.0
 71
     0
 42
2.5
  3
txt
  4

  0
ENDTAB
  0
TABLE
  2
VIEW
  5
6
330
0
100
AcDbSymbolTable
 70
     0
  0
ENDTAB
  0
TABLE
  2
UCS
  5
7
330
0
100
AcDbSymbolTable
 70
     0
  0
ENDTAB
  0
TABLE
  2
APPID
  5
9
330
0
100
AcDbSymbolTable
 70
     2
  0
APPID
  5
12
330
9
100
AcDbSymbolTableRecord
100
AcDbRegAppTableRecord
  2
ACAD
 70
     0
  0
ENDTAB
  0
TABLE
  2
DIMSTYLE
  5
A
330
0
100
AcDbSymbolTable
 70
     1
  0
DIMSTYLE
105
27
330
A
100
AcDbSymbolTableRecord
100
AcDbDimStyleTableRecord
  2
ISO-25
 70
     0
  3

  4

  5

  6

  7

 40
1.0
 41
2.5
 42
0.625
 43
3.75
 44
1.25
 45
0.0
 46
0.0
 47
0.0
 48
0.0
140
2.5
141
2.5
142
0.0
143
0.03937007874016
144
1.0
145
0.0
146
1.0
147
0.625
 71
     0
 72
     0
 73
     0
 74
     0
 75
     0
 76
     0
 77
     1
 78
     8
170
     0
171
     3
172
     1
173
     0
174
     0
175
     0
176
     0
177
     0
178
     0
270
     2
271
     2
272
     2
273
     2
274
     3
340
11
275
     0
280
     0
281
     0
282
     0
283
     0
284
     8
285
     0
286
     0
287
     3
288
     0
  0
ENDTAB
  0
TABLE
  2
BLOCK_RECORD
  5
1
330
0
100
AcDbSymbolTable
 70
     1
  0
BLOCK_RECORD
  5
1F
330
1
100
AcDbSymbolTableRecord
100
AcDbBlockTableRecord
  2
*MODEL_SPACE
  0
BLOCK_RECORD
  5
1B
330
1
100
AcDbSymbolTableRecord
100
AcDbBlockTableRecord
  2
*PAPER_SPACE
  0
ENDTAB
  0
ENDSEC
  0
SECTION
  2
BLOCKS
  0
BLOCK
  5
20
330
1F
100
AcDbEntity
  8
0
100
AcDbBlockBegin
  2
*MODEL_SPACE
 70
     0
 10
0.0
 20
0.0
 30
0.0
  3
*MODEL_SPACE
  1

  0
ENDBLK
  5
21
330
1F
100
AcDbEntity
  8
0
100
AcDbBlockEnd
  0
BLOCK
  5
1C
330
1B
100
AcDbEntity
 67
     1
  8
0
100
AcDbBlockBegin
  2
*PAPER_SPACE
  1

  0
ENDBLK
  5
1D
330
1B
100
AcDbEntity
 67
     1
  8
0
100
AcDbBlockEnd
  0
ENDSEC
  0
SECTION
  2
ENTITIES
  0
SPLINE
  5
100
100
AcDbEntity
  8
Layer_1
 62
7
100
AcDbSpline
 70
8
 71
3
 72
8
 73
4
 74
0
 40
0
 40
0
 40
0
 40
0
 40
1
 40
1
 40
1
 40
1
 10
55.476600
 20
59.527892
 30
0.0
 10
82.553600
 20
59.527892
 30
0.0
 10
104.503600
 20
81.478892
 30
0.0
 10
104.503600
 20
108.555892
 30
0.0
  0
SPLINE
  5
101
100
AcDbEntity
  8
Layer_1
 62
7
100
AcDbSpline
 70
8
 71
3
 72
8
 73
4
 74
0
 40
0
 40
0
 40
0
 40
0
 40
1
 40
1
 40
1
 40
1
 10
104.503600
 20
108.555892
 30
0.0
 10
104.503600
 20
122.613892
 30
0.0
 10
98.577600
 20
135.280892
 30
0.0
 10
89.097600
 20
144.220900
 30
0.0
  0
LWPOLYLINE
  5
102
100
AcDbEntity
  8
Layer_1
 62
7
100
AcDbPolyline
 90
6
 70
1
 10
109.030304
 20
35.981100
 30
0.0
 10
1.418304
 20
35.981100
 30
0.0
 10
37.172304
 20
144.221100
 30
0.0
 10
144.782304
 20
144.221100
 30
0.0
 10
109.030304
 20
35.981100
 30
0.0
 10
109.030304
 20
35.981100
 30
0.0
  0
SPLINE
  5
103
100
AcDbEntity
  8
Layer_1
 62
7
100
AcDbSpline
 70
8
 71
3
 72
8
 73
4
 74
0
 40
0
 40
0
 40
0
 40
0
 40
1
 40
1
 40
1
 40
1
 10
15.855600
 20
79.689892
 30
0.0
 10
24.771600
 20
67.472892
 30
0.0
 10
39.193600
 20
59.527892
 30
0.0
 10
55.476600
 20
59.527892
 30
0.0
  0
LWPOLYLINE
  5
104
100
AcDbEntity
  8
Layer_1
 62
7
100
AcDbPolyline
 90
3
 70
0
 10
89.097600
 20
144.220900
 30
0.0
 10
37.171600
 20
144.220900
 30
0.0
 10
15.855600
 20
79.689892
 30
0.0
  0
LWPOLYLINE
  5
105
100
AcDbEntity
  8
Layer_1
 62
7
100
AcDbPolyline
 90
6
 70
1
 10
111.267600
 20
39.773996
 30
0.0
 10
77.679600
 20
97.223996
 30
0.0
 10
73.505600
 20
97.122996
 30
0.0
 10
105.812600
 20
27.380996
 30
0.0
 10
111.267600
 20
39.773996
 30
0.0
 10
111.267600
 20
39.773996
 30
0.0
  0
SPLINE
  5
106
100
AcDbEntity
  8
Layer_1
 62
7
100
AcDbSpline
 70
8
 71
3
 72
8
 73
4
 74
0
 40
0
 40
0
 40
0
 40
0
 40
1
 40
1
 40
1
 40
1
 10
65.839896
 20
105.355092
 30
0.0
 10
65.487896
 20
101.195092
 30
0.0
 10
68.372896
 20
97.556092
 30
0.0
 10
72.282896
 20
97.226092
 30
0.0
  0
SPLINE
  5
107
100
AcDbEntity
  8
Layer_1
 62
7
100
AcDbSpline
 70
8
 71
3
 72
8
 73
4
 74
0
 40
0
 40
0
 40
0
 40
0
 40
1
 40
1
 40
1
 40
1
 10
72.282896
 20
97.226092
 30
0.0
 10
76.193896
 20
96.895092
 30
0.0
 10
79.650896
 20
99.999092
 30
0.0
 10
80.001904
 20
104.157092
 30
0.0
  0
SPLINE
  5
108
100
AcDbEntity
  8
Layer_1
 62
7
100
AcDbSpline
 70
8
 71
3
 72
8
 73
4
 74
0
 40
0
 40
0
 40
0
 40
0
 40
1
 40
1
 40
1
 40
1
 10
80.001904
 20
104.157092
 30
0.0
 10
80.353904
 20
108.315092
 30
0.0
 10
77.467896
 20
111.954092
 30
0.0
 10
73.555896
 20
112.284092
 30
0.0
  0
SPLINE
  5
109
100
AcDbEntity
  8
Layer_1
 62
7
100
AcDbSpline
 70
8
 71
3
 72
8
 73
4
 74
0
 40
0
 40
0
 40
0
 40
0
 40
1
 40
1
 40
1
 40
1
 10
73.555896
 20
112.284092
 30
0.0
 10
69.645896
 20
112.615092
 30
0.0
 10
66.190896
 20
109.512092
 30
0.0
 10
65.839896
 20
105.355092
 30
0.0
  0
LWPOLYLINE
  5
10a
100
AcDbEntity
  8
Layer_1
 62
7
100
AcDbPolyline
 90
4
 70
0
 10
70.592800
 20
103.724196
 30
0.0
 10
115.591800
 20
77.596196
 30
0.0
 10
72.487800
 20
109.703196
 30
0.0
 10
70.642800
 20
104.307196
 30
0.0
  0
LWPOLYLINE
  5
10b
100
AcDbEntity
  8
Layer_1
 62
7
100
AcDbPolyline
 90
6
 70
1
 10
70.909200
 20
111.572892
 30
0.0
 10
89.400200
 20
153.746900
 30
0.0
 10
77.121200
 20
113.825892
 30
0.0
 10
73.006200
 20
111.742892
 30
0.0
 10
70.909200
 20
111.572892
 30
0.0
 10
70.909200
 20
111.572892
 30
0.0
  0
SPLINE
  5
10c
100
AcDbEntity
  8
Layer_1
 62
7
100
AcDbSpline
 70
8
 71
3
 72
8
 73
4
 74
0
 40
0
 40
0
 40
0
 40
0
 40
1
 40
1
 40
1
 40
1
 10
68.940400
 20
105.415596
 30
0.0
 10
68.713400
 20
102.737596
 30
0.0
 10
70.491400
 20
100.399596
 30
0.0
 10
72.909400
 20
100.195596
 30
0.0
  0
SPLINE
  5
10d
100
AcDbEntity
  8
Layer_1
 62
7
100
AcDbSpline
 70
8
 71
3
 72
8
 73
4
 74
0
 40
0
 40
0
 40
0
 40
0
 40
1
 40
1
 40
1
 40
1
 10
72.909400
 20
100.195596
 30
0.0
 10
75.326400
 20
99.992596
 30
0.0
 10
77.469400
 20
101.997596
 30
0.0
 10
77.697400
 20
104.675596
 30
0.0
  0
SPLINE
  5
10e
100
AcDbEntity
  8
Layer_1
 62
7
100
AcDbSpline
 70
8
 71
3
 72
8
 73
4
 74
0
 40
0
 40
0
 40
0
 40
0
 40
1
 40
1
 40
1
 40
1
 10
77.697400
 20
104.675596
 30
0.0
 10
77.922400
 20
107.353596
 30
0.0
 10
76.145400
 20
109.690596
 30
0.0
 10
73.729400
 20
109.894596
 30
0.0
  0
SPLINE
  5
10f
100
AcDbEntity
  8
Layer_1
 62
7
100
AcDbSpline
 70
8
 71
3
 72
8
 73
4
 74
0
 40
0
 40
0
 40
0
 40
0
 40
1
 40
1
 40
1
 40
1
 10
73.729400
 20
109.894596
 30
0.0
 10
71.311400
 20
110.099596
 30
0.0
 10
69.167400
 20
108.094596
 30
0.0
 10
68.940400
 20
105.415596
 30
0.0
  0
SPLINE
  5
110
100
AcDbEntity
  8
Layer_1
 62
7
100
AcDbSpline
 70
8
 71
3
 72
8
 73
4
 74
0
 40
0
 40
0
 40
0
 40
0
 40
1
 40
1
 40
1
 40
1
 10
67.592800
 20
105.529892
 30
0.0
 10
67.365800
 20
102.851892
 30
0.0
 10
69.143800
 20
100.513892
 30
0.0
 10
71.561800
 20
100.309892
 30
0.0
  0
SPLINE
  5
111
100
AcDbEntity
  8
Layer_1
 62
7
100
AcDbSpline
 70
8
 71
3
 72
8
 73
4
 74
0
 40
0
 40
0
 40
0
 40
0
 40
1
 40
1
 40
1
 40
1
 10
71.561800
 20
100.309892
 30
0.0
 10
73.979800
 20
100.105892
 30
0.0
 10
76.123800
 20
102.111892
 30
0.0
 10
76.349800
 20
104.789892
 30
0.0
  0
SPLINE
  5
112
100
AcDbEntity
  8
Layer_1
 62
7
100
AcDbSpline
 70
8
 71
3
 72
8
 73
4
 74
0
 40
0
 40
0
 40
0
 40
0
 40
1
 40
1
 40
1
 40
1
 10
76.349800
 20
104.789892
 30
0.0
 10
76.575800
 20
107.467892
 30
0.0
 10
74.798800
 20
109.802892
 30
0.0
 10
72.381800
 20
110.008892
 30
0.0
  0
SPLINE
  5
113
100
AcDbEntity
  8
Layer_1
 62
7
100
AcDbSpline
 70
8
 71
3
 72
8
 73
4
 74
0
 40
0
 40
0
 40
0
 40
0
 40
1
 40
1
 40
1
 40
1
 10
72.381800
 20
110.008892
 30
0.0
 10
69.963800
 20
110.212892
 30
0.0
 10
67.820800
 20
108.207892
 30
0.0
 10
67.592800
 20
105.529892
 30
0.0
  0
SPLINE
  5
114
100
AcDbEntity
  8
Layer_1
 62
7
100
AcDbSpline
 70
8
 71
3
 72
8
 73
4
 74
0
 40
0
 40
0
 40
0
 40
0
 40
1
 40
1
 40
1
 40
1
 10
73.836896
 20
105.544492
 30
0.0
 10
73.729896
 20
104.279492
 30
0.0
 10
72.315896
 20
103.366492
 30
0.0
 10
70.679896
 20
103.505492
 30
0.0
  0
SPLINE
  5
115
100
AcDbEntity
  8
Layer_1
 62
7
100
AcDbSpline
 70
8
 71
3
 72
8
 73
4
 74
0
 40
0
 40
0
 40
0
 40
0
 40
1
 40
1
 40
1
 40
1
 10
70.679896
 20
103.505492
 30
0.0
 10
69.041896
 20
103.643492
 30
0.0
 10
67.801896
 20
104.780492
 30
0.0
 10
67.908896
 20
106.046492
 30
0.0
  0
SPLINE
  5
116
100
AcDbEntity
  8
Layer_1
 62
7
100
AcDbSpline
 70
8
 71
3
 72
8
 73
4
 74
0
 40
0
 40
0
 40
0
 40
0
 40
1
 40
1
 40
1
 40
1
 10
67.908896
 20
106.046492
 30
0.0
 10
68.015896
 20
107.309492
 30
0.0
 10
69.428896
 20
108.223492
 30
0.0
 10
71.066896
 20
108.084492
 30
0.0
  0
SPLINE
  5
117
100
AcDbEntity
  8
Layer_1
 62
7
100
AcDbSpline
 70
8
 71
3
 72
8
 73
4
 74
0
 40
0
 40
0
 40
0
 40
0
 40
1
 40
1
 40
1
 40
1
 10
71.066896
 20
108.084492
 30
0.0
 10
72.701896
 20
107.945492
 30
0.0
 10
73.941896
 20
106.809492
 30
0.0
 10
73.836896
 20
105.544492
 30
0.0
  0
SPLINE
  5
118
100
AcDbEntity
  8
Layer_1
 62
7
100
AcDbSpline
 70
8
 71
3
 72
8
 73
4
 74
0
 40
0
 40
0
 40
0
 40
0
 40
1
 40
1
 40
1
 40
1
 10
74.716800
 20
105.147092
 30
0.0
 10
74.611800
 20
103.881092
 30
0.0
 10
73.196800
 20
102.968092
 30
0.0
 10
71.560800
 20
103.107092
 30
0.0
  0
SPLINE
  5
119
100
AcDbEntity
  8
Layer_1
 62
7
100
AcDbSpline
 70
8
 71
3
 72
8
 73
4
 74
0
 40
0
 40
0
 40
0
 40
0
 40
1
 40
1
 40
1
 40
1
 10
71.560800
 20
103.107092
 30
0.0
 10
69.922800
 20
103.246092
 30
0.0
 10
68.682800
 20
104.382092
 30
0.0
 10
68.789800
 20
105.647092
 30
0.0
  0
SPLINE
  5
11a
100
AcDbEntity
  8
Layer_1
 62
7
100
AcDbSpline
 70
8
 71
3
 72
8
 73
4
 74
0
 40
0
 40
0
 40
0
 40
0
 40
1
 40
1
 40
1
 40
1
 10
68.789800
 20
105.647092
 30
0.0
 10
68.897800
 20
106.913092
 30
0.0
 10
70.310800
 20
107.825092
 30
0.0
 10
71.947800
 20
107.686092
 30
0.0
  0
SPLINE
  5
11b
100
AcDbEntity
  8
Layer_1
 62
7
100
AcDbSpline
 70
8
 71
3
 72
8
 73
4
 74
0
 40
0
 40
0
 40
0
 40
0
 40
1
 40
1
 40
1
 40
1
 10
71.947800
 20
107.686092
 30
0.0
 10
73.583800
 20
107.548092
 30
0.0
 10
74.823800
 20
106.411092
 30
0.0
 10
74.716800
 20
105.147092
 30
0.0
  0
LWPOLYLINE
  5
11c
100
AcDbEntity
  8
Layer_1
 62
7
100
AcDbPolyline
 90
5
 70
1
 10
64.787096
 20
100.744692
 30
0.0
 10
26.933096
 20
84.729692
 30
0.0
 10
66.653096
 20
106.380692
 30
0.0
 10
64.787096
 20
100.744692
 30
0.0
 10
64.787096
 20
100.744692
 30
0.0
  0
LWPOLYLINE
  5
11d
100
AcDbEntity
  8
Layer_1
 62
7
100
AcDbPolyline
 90
14
 70
1
 10
11.919000
 20
14.114892
 30
0.0
 10
8.654000
 20
14.114892
 30
0.0
 10
4.947000
 20
19.429892
 30
0.0
 10
3.222000
 20
17.635892
 30
0.0
 10
3.222000
 20
14.114892
 30
0.0
 10
0.400000
 20
14.114892
 30
0.0
 10
0.400000
 20
31.135892
 30
0.0
 10
3.222000
 20
31.135892
 30
0.0
 10
3.222000
 20
20.968892
 30
0.0
 10
8.328000
 20
26.425892
 30
0.0
 10
11.756000
 20
26.425892
 30
0.0
 10
6.859000
 20
21.412892
 30
0.0
 10
11.919000
 20
14.114892
 30
0.0
 10
11.919000
 20
14.114892
 30
0.0
  0
LWPOLYLINE
  5
11e
100
AcDbEntity
  8
Layer_1
 62
7
100
AcDbPolyline
 90
6
 70
1
 10
14.133496
 20
26.425596
 30
0.0
 10
16.954496
 20
26.425596
 30
0.0
 10
16.954496
 20
14.114596
 30
0.0
 10
14.133496
 20
14.114596
 30
0.0
 10
14.133496
 20
26.425596
 30
0.0
 10
14.133496
 20
26.425596
 30
0.0
  0
LWPOLYLINE
  5
11f
100
AcDbEntity
  8
Layer_1
 62
7
100
AcDbPolyline
 90
6
 70
1
 10
14.016496
 20
30.994596
 30
0.0
 10
17.047496
 20
30.994596
 30
0.0
 10
17.047496
 20
28.313596
 30
0.0
 10
14.016496
 20
28.313596
 30
0.0
 10
14.016496
 20
30.994596
 30
0.0
 10
14.016496
 20
30.994596
 30
0.0
  0
SPLINE
  5
120
100
AcDbEntity
  8
Layer_1
 62
7
100
AcDbSpline
 70
8
 71
3
 72
8
 73
4
 74
0
 40
0
 40
0
 40
0
 40
0
 40
1
 40
1
 40
1
 40
1
 10
23.459000
 20
24.512892
 30
0.0
 10
24.252000
 20
25.678892
 30
0.0
 10
25.395000
 20
26.681892
 30
0.0
 10
27.307000
 20
26.681892
 30
0.0
  0
SPLINE
  5
121
100
AcDbEntity
  8
Layer_1
 62
7
100
AcDbSpline
 70
8
 71
3
 72
8
 73
4
 74
0
 40
0
 40
0
 40
0
 40
0
 40
1
 40
1
 40
1
 40
1
 10
27.307000
 20
26.681892
 30
0.0
 10
30.081000
 20
26.681892
 30
0.0
 10
31.689000
 20
24.816892
 30
0.0
 10
31.689000
 20
21.948892
 30
0.0
  0
LWPOLYLINE
  5
122
100
AcDbEntity
  8
Layer_1
 62
7
100
AcDbPolyline
 90
5
 70
1
 10
23.459000
 20
14.114892
 30
0.0
 10
20.639000
 20
14.114892
 30
0.0
 10
20.639000
 20
26.425892
 30
0.0
 10
23.459000
 20
26.425892
 30
0.0
 10
23.459000
 20
24.512892
 30
0.0
  0
SPLINE
  5
123
100
AcDbEntity
  8
Layer_1
 62
7
100
AcDbSpline
 70
8
 71
3
 72
8
 73
4
 74
0
 40
0
 40
0
 40
0
 40
0
 40
1
 40
1
 40
1
 40
1
 10
28.868000
 20
21.109892
 30
0.0
 10
28.868000
 20
23.020892
 30
0.0
 10
27.912000
 20
24.116892
 30
0.0
 10
26.234000
 20
24.116892
 30
0.0
  0
SPLINE
  5
124
100
AcDbEntity
  8
Layer_1
 62
7
100
AcDbSpline
 70
8
 71
3
 72
8
 73
4
 74
0
 40
0
 40
0
 40
0
 40
0
 40
1
 40
1
 40
1
 40
1
 10
26.234000
 20
24.116892
 30
0.0
 10
24.602000
 20
24.116892
 30
0.0
 10
23.459000
 20
22.974892
 30
0.0
 10
23.459000
 20
21.062892
 30
0.0
  0
LWPOLYLINE
  5
125
100
AcDbEntity
  8
Layer_1
 62
7
100
AcDbPolyline
 90
4
 70
1
 10
31.689000
 20
21.948892
 30
0.0
 10
31.689000
 20
14.114892
 30
0.0
 10
28.868000
 20
14.114892
 30
0.0
 10
28.868000
 20
21.109892
 30
0.0
  0
SPLINE
  5
126
100
AcDbEntity
  8
Layer_1
 62
7
100
AcDbSpline
 70
8
 71
3
 72
8
 73
4
 74
0
 40
0
 40
0
 40
0
 40
0
 40
1
 40
1
 40
1
 40
1
 10
43.533200
 20
21.132396
 30
0.0
 10
43.346200
 20
22.951396
 30
0.0
 10
42.274200
 20
24.373396
 30
0.0
 10
40.409200
 20
24.373396
 30
0.0
  0
SPLINE
  5
127
100
AcDbEntity
  8
Layer_1
 62
7
100
AcDbSpline
 70
8
 71
3
 72
8
 73
4
 74
0
 40
0
 40
0
 40
0
 40
0
 40
1
 40
1
 40
1
 40
1
 10
40.409200
 20
24.373396
 30
0.0
 10
38.683200
 20
24.373396
 30
0.0
 10
37.471200
 20
23.044396
 30
0.0
 10
37.215200
 20
21.132396
 30
0.0
  0
LWPOLYLINE
  5
128
100
AcDbEntity
  8
Layer_1
 62
7
100
AcDbPolyline
 90
3
 70
1
 10
23.459000
 20
21.062892
 30
0.0
 10
23.459000
 20
14.114892
 30
0.0
 10
23.459000
 20
14.114892
 30
0.0
  0
SPLINE
  5
129
100
AcDbEntity
  8
Layer_1
 62
7
100
AcDbSpline
 70
8
 71
3
 72
8
 73
4
 74
0
 40
0
 40
0
 40
0
 40
0
 40
1
 40
1
 40
1
 40
1
 10
40.782200
 20
16.143396
 30
0.0
 10
42.158200
 20
16.143396
 30
0.0
 10
43.137200
 20
16.655396
 30
0.0
 10
44.116200
 20
17.611396
 30
0.0
  0
LWPOLYLINE
  5
12a
100
AcDbEntity
  8
Layer_1
 62
7
100
AcDbPolyline
 90
3
 70
0
 10
37.215200
 20
21.132396
 30
0.0
 10
43.533200
 20
21.132396
 30
0.0
 10
43.533200
 20
21.132396
 30
0.0
  0
SPLINE
  5
12b
100
AcDbEntity
  8
Layer_1
 62
7
100
AcDbSpline
 70
8
 71
3
 72
8
 73
4
 74
0
 40
0
 40
0
 40
0
 40
0
 40
1
 40
1
 40
1
 40
1
 10
45.771200
 20
16.143396
 30
0.0
 10
44.605200
 20
14.744396
 30
0.0
 10
42.997200
 20
13.834396
 30
0.0
 10
40.735200
 20
13.834396
 30
0.0
  0
SPLINE
  5
12c
100
AcDbEntity
  8
Layer_1
 62
7
100
AcDbSpline
 70
8
 71
3
 72
8
 73
4
 74
0
 40
0
 40
0
 40
0
 40
0
 40
1
 40
1
 40
1
 40
1
 10
40.735200
 20
13.834396
 30
0.0
 10
37.168200
 20
13.834396
 30
0.0
 10
34.417200
 20
16.423396
 30
0.0
 10
34.417200
 20
20.246396
 30
0.0
  0
SPLINE
  5
12d
100
AcDbEntity
  8
Layer_1
 62
7
100
AcDbSpline
 70
8
 71
3
 72
8
 73
4
 74
0
 40
0
 40
0
 40
0
 40
0
 40
1
 40
1
 40
1
 40
1
 10
34.417200
 20
20.246396
 30
0.0
 10
34.417200
 20
23.790396
 30
0.0
 10
36.912200
 20
26.682396
 30
0.0
 10
40.432200
 20
26.682396
 30
0.0
  0
SPLINE
  5
12e
100
AcDbEntity
  8
Layer_1
 62
7
100
AcDbSpline
 70
8
 71
3
 72
8
 73
4
 74
0
 40
0
 40
0
 40
0
 40
0
 40
1
 40
1
 40
1
 40
1
 10
40.432200
 20
26.682396
 30
0.0
 10
44.349200
 20
26.682396
 30
0.0
 10
46.331200
 20
23.604396
 30
0.0
 10
46.331200
 20
20.036396
 30
0.0
  0
SPLINE
  5
12f
100
AcDbEntity
  8
Layer_1
 62
7
100
AcDbSpline
 70
8
 71
3
 72
8
 73
4
 74
0
 40
0
 40
0
 40
0
 40
0
 40
1
 40
1
 40
1
 40
1
 10
46.331200
 20
20.036396
 30
0.0
 10
46.331200
 20
19.780396
 30
0.0
 10
46.307200
 20
19.547396
 30
0.0
 10
46.285200
 20
19.267396
 30
0.0
  0
LWPOLYLINE
  5
130
100
AcDbEntity
  8
Layer_1
 62
7
100
AcDbPolyline
 90
2
 70
0
 10
44.116200
 20
17.611396
 30
0.0
 10
45.771200
 20
16.143396
 30
0.0
  0
SPLINE
  5
131
100
AcDbEntity
  8
Layer_1
 62
7
100
AcDbSpline
 70
8
 71
3
 72
8
 73
4
 74
0
 40
0
 40
0
 40
0
 40
0
 40
1
 40
1
 40
1
 40
1
 10
37.238200
 20
19.267396
 30
0.0
 10
37.564200
 20
17.262396
 30
0.0
 10
38.964200
 20
16.143396
 30
0.0
 10
40.782200
 20
16.143396
 30
0.0
  0
SPLINE
  5
132
100
AcDbEntity
  8
Layer_1
 62
7
100
AcDbSpline
 70
8
 71
3
 72
8
 73
4
 74
0
 40
0
 40
0
 40
0
 40
0
 40
1
 40
1
 40
1
 40
1
 10
52.579096
 20
17.961492
 30
0.0
 10
52.579096
 20
16.865492
 30
0.0
 10
53.139096
 20
16.423492
 30
0.0
 10
54.095096
 20
16.423492
 30
0.0
  0
SPLINE
  5
133
100
AcDbEntity
  8
Layer_1
 62
7
100
AcDbSpline
 70
8
 71
3
 72
8
 73
4
 74
0
 40
0
 40
0
 40
0
 40
0
 40
1
 40
1
 40
1
 40
1
 10
54.095096
 20
16.423492
 30
0.0
 10
54.725096
 20
16.423492
 30
0.0
 10
55.284096
 20
16.563492
 30
0.0
 10
55.844096
 20
16.842492
 30
0.0
  0
LWPOLYLINE
  5
134
100
AcDbEntity
  8
Layer_1
 62
7
100
AcDbPolyline
 90
2
 70
0
 10
46.285200
 20
19.267396
 30
0.0
 10
37.238200
 20
19.267396
 30
0.0
  0
SPLINE
  5
135
100
AcDbEntity
  8
Layer_1
 62
7
100
AcDbSpline
 70
8
 71
3
 72
8
 73
4
 74
0
 40
0
 40
0
 40
0
 40
0
 40
1
 40
1
 40
1
 40
1
 10
55.844096
 20
14.534492
 30
0.0
 10
55.144096
 20
14.138492
 30
0.0
 10
54.351096
 20
13.904492
 30
0.0
 10
53.302096
 20
13.904492
 30
0.0
  0
SPLINE
  5
136
100
AcDbEntity
  8
Layer_1
 62
7
100
AcDbSpline
 70
8
 71
3
 72
8
 73
4
 74
0
 40
0
 40
0
 40
0
 40
0
 40
1
 40
1
 40
1
 40
1
 10
53.302096
 20
13.904492
 30
0.0
 10
51.226096
 20
13.904492
 30
0.0
 10
49.758096
 20
14.814492
 30
0.0
 10
49.758096
 20
17.519492
 30
0.0
  0
LWPOLYLINE
  5
137
100
AcDbEntity
  8
Layer_1
 62
7
100
AcDbPolyline
 90
2
 70
1
 10
55.844096
 20
16.842492
 30
0.0
 10
55.844096
 20
14.534492
 30
0.0
  0
LWPOLYLINE
  5
138
100
AcDbEntity
  8
Layer_1
 62
7
100
AcDbPolyline
 90
13
 70
1
 10
49.758096
 20
17.519492
 30
0.0
 10
49.758096
 20
24.000492
 30
0.0
 10
48.196096
 20
24.000492
 30
0.0
 10
48.196096
 20
26.425492
 30
0.0
 10
49.758096
 20
26.425492
 30
0.0
 10
49.758096
 20
29.806492
 30
0.0
 10
52.579096
 20
29.806492
 30
0.0
 10
52.579096
 20
26.425492
 30
0.0
 10
55.891096
 20
26.425492
 30
0.0
 10
55.891096
 20
24.000492
 30
0.0
 10
52.579096
 20
24.000492
 30
0.0
 10
52.579096
 20
17.961492
 30
0.0
 10
52.579096
 20
17.961492
 30
0.0
  0
SPLINE
  5
139
100
AcDbEntity
  8
Layer_1
 62
7
100
AcDbSpline
 70
8
 71
3
 72
8
 73
4
 74
0
 40
0
 40
0
 40
0
 40
0
 40
1
 40
1
 40
1
 40
1
 10
81.792000
 20
13.840396
 30
0.0
 10
77.122000
 20
13.840396
 30
0.0
 10
73.644000
 20
17.479396
 30
0.0
 10
73.644000
 20
22.103396
 30
0.0
  0
SPLINE
  5
13a
100
AcDbEntity
  8
Layer_1
 62
7
100
AcDbSpline
 70
8
 71
3
 72
8
 73
4
 74
0
 40
0
 40
0
 40
0
 40
0
 40
1
 40
1
 40
1
 40
1
 10
73.644000
 20
22.103396
 30
0.0
 10
73.644000
 20
26.680396
 30
0.0
 10
77.054000
 20
30.410396
 30
0.0
 10
81.906000
 20
30.410396
 30
0.0
  0
SPLINE
  5
13b
100
AcDbEntity
  8
Layer_1
 62
7
100
AcDbSpline
 70
8
 71
3
 72
8
 73
4
 74
0
 40
0
 40
0
 40
0
 40
0
 40
1
 40
1
 40
1
 40
1
 10
81.906000
 20
30.410396
 30
0.0
 10
84.858000
 20
30.410396
 30
0.0
 10
86.644000
 20
29.381396
 30
0.0
 10
88.178000
 20
27.916396
 30
0.0
  0
LWPOLYLINE
  5
13c
100
AcDbEntity
  8
Layer_1
 62
7
100
AcDbPolyline
 90
14
 70
1
 10
70.900400
 20
27.618796
 30
0.0
 10
61.837400
 20
27.618796
 30
0.0
 10
61.837400
 20
23.453796
 30
0.0
 10
69.871400
 20
23.453796
 30
0.0
 10
69.871400
 20
20.934796
 30
0.0
 10
61.837400
 20
20.934796
 30
0.0
 10
61.837400
 20
16.632796
 30
0.0
 10
71.015400
 20
16.632796
 30
0.0
 10
71.015400
 20
14.114796
 30
0.0
 10
59.021400
 20
14.114796
 30
0.0
 10
59.021400
 20
30.136796
 30
0.0
 10
70.900400
 20
30.136796
 30
0.0
 10
70.900400
 20
27.618796
 30
0.0
 10
70.900400
 20
27.618796
 30
0.0
  0
SPLINE
  5
13d
100
AcDbEntity
  8
Layer_1
 62
7
100
AcDbSpline
 70
8
 71
3
 72
8
 73
4
 74
0
 40
0
 40
0
 40
0
 40
0
 40
1
 40
1
 40
1
 40
1
 10
86.369000
 20
25.833396
 30
0.0
 10
85.088000
 20
27.024396
 30
0.0
 10
83.714000
 20
27.824396
 30
0.0
 10
81.883000
 20
27.824396
 30
0.0
  0
SPLINE
  5
13e
100
AcDbEntity
  8
Layer_1
 62
7
100
AcDbSpline
 70
8
 71
3
 72
8
 73
4
 74
0
 40
0
 40
0
 40
0
 40
0
 40
1
 40
1
 40
1
 40
1
 10
81.883000
 20
27.824396
 30
0.0
 10
78.816000
 20
27.824396
 30
0.0
 10
76.596000
 20
25.307396
 30
0.0
 10
76.596000
 20
22.149396
 30
0.0
  0
SPLINE
  5
13f
100
AcDbEntity
  8
Layer_1
 62
7
100
AcDbSpline
 70
8
 71
3
 72
8
 73
4
 74
0
 40
0
 40
0
 40
0
 40
0
 40
1
 40
1
 40
1
 40
1
 10
76.596000
 20
22.149396
 30
0.0
 10
76.596000
 20
18.989396
 30
0.0
 10
78.816000
 20
16.426396
 30
0.0
 10
81.883000
 20
16.426396
 30
0.0
  0
SPLINE
  5
140
100
AcDbEntity
  8
Layer_1
 62
7
100
AcDbSpline
 70
8
 71
3
 72
8
 73
4
 74
0
 40
0
 40
0
 40
0
 40
0
 40
1
 40
1
 40
1
 40
1
 10
81.883000
 20
16.426396
 30
0.0
 10
83.852000
 20
16.426396
 30
0.0
 10
85.110000
 20
17.227396
 30
0.0
 10
86.483000
 20
18.509396
 30
0.0
  0
LWPOLYLINE
  5
141
100
AcDbEntity
  8
Layer_1
 62
7
100
AcDbPolyline
 90
2
 70
0
 10
88.178000
 20
27.916396
 30
0.0
 10
86.369000
 20
25.833396
 30
0.0
  0
SPLINE
  5
142
100
AcDbEntity
  8
Layer_1
 62
7
100
AcDbSpline
 70
8
 71
3
 72
8
 73
4
 74
0
 40
0
 40
0
 40
0
 40
0
 40
1
 40
1
 40
1
 40
1
 10
88.292000
 20
16.678396
 30
0.0
 10
86.621000
 20
14.939396
 30
0.0
 10
84.790000
 20
13.840396
 30
0.0
 10
81.792000
 20
13.840396
 30
0.0
  0
SPLINE
  5
143
100
AcDbEntity
  8
Layer_1
 62
7
100
AcDbSpline
 70
8
 71
3
 72
8
 73
4
 74
0
 40
0
 40
0
 40
0
 40
0
 40
1
 40
1
 40
1
 40
1
 10
98.425800
 20
27.824796
 30
0.0
 10
95.244800
 20
27.824796
 30
0.0
 10
93.024800
 20
25.283796
 30
0.0
 10
93.024800
 20
22.148796
 30
0.0
  0
SPLINE
  5
144
100
AcDbEntity
  8
Layer_1
 62
7
100
AcDbSpline
 70
8
 71
3
 72
8
 73
4
 74
0
 40
0
 40
0
 40
0
 40
0
 40
1
 40
1
 40
1
 40
1
 10
93.024800
 20
22.148796
 30
0.0
 10
93.024800
 20
19.012796
 30
0.0
 10
95.290800
 20
16.426796
 30
0.0
 10
98.471800
 20
16.426796
 30
0.0
  0
SPLINE
  5
145
100
AcDbEntity
  8
Layer_1
 62
7
100
AcDbSpline
 70
8
 71
3
 72
8
 73
4
 74
0
 40
0
 40
0
 40
0
 40
0
 40
1
 40
1
 40
1
 40
1
 10
98.471800
 20
16.426796
 30
0.0
 10
101.653800
 20
16.426796
 30
0.0
 10
103.873800
 20
18.967796
 30
0.0
 10
103.873800
 20
22.102796
 30
0.0
  0
SPLINE
  5
146
100
AcDbEntity
  8
Layer_1
 62
7
100
AcDbSpline
 70
8
 71
3
 72
8
 73
4
 74
0
 40
0
 40
0
 40
0
 40
0
 40
1
 40
1
 40
1
 40
1
 10
103.873800
 20
22.102796
 30
0.0
 10
103.873800
 20
25.238796
 30
0.0
 10
101.607800
 20
27.824796
 30
0.0
 10
98.425800
 20
27.824796
 30
0.0
  0
SPLINE
  5
147
100
AcDbEntity
  8
Layer_1
 62
7
100
AcDbSpline
 70
8
 71
3
 72
8
 73
4
 74
0
 40
0
 40
0
 40
0
 40
0
 40
1
 40
1
 40
1
 40
1
 10
98.425800
 20
13.840796
 30
0.0
 10
93.504800
 20
13.840796
 30
0.0
 10
90.071800
 20
17.570796
 30
0.0
 10
90.071800
 20
22.102796
 30
0.0
  0
SPLINE
  5
148
100
AcDbEntity
  8
Layer_1
 62
7
100
AcDbSpline
 70
8
 71
3
 72
8
 73
4
 74
0
 40
0
 40
0
 40
0
 40
0
 40
1
 40
1
 40
1
 40
1
 10
90.071800
 20
22.102796
 30
0.0
 10
90.071800
 20
26.634796
 30
0.0
 10
93.550800
 20
30.410796
 30
0.0
 10
98.471800
 20
30.410796
 30
0.0
  0
SPLINE
  5
149
100
AcDbEntity
  8
Layer_1
 62
7
100
AcDbSpline
 70
8
 71
3
 72
8
 73
4
 74
0
 40
0
 40
0
 40
0
 40
0
 40
1
 40
1
 40
1
 40
1
 10
98.471800
 20
30.410796
 30
0.0
 10
103.392800
 20
30.410796
 30
0.0
 10
106.825800
 20
26.679796
 30
0.0
 10
106.825800
 20
22.148796
 30
0.0
  0
SPLINE
  5
14a
100
AcDbEntity
  8
Layer_1
 62
7
100
AcDbSpline
 70
8
 71
3
 72
8
 73
4
 74
0
 40
0
 40
0
 40
0
 40
0
 40
1
 40
1
 40
1
 40
1
 10
106.825800
 20
22.148796
 30
0.0
 10
106.825800
 20
17.616796
 30
0.0
 10
103.347800
 20
13.840796
 30
0.0
 10
98.425800
 20
13.840796
 30
0.0
  0
LWPOLYLINE
  5
14b
100
AcDbEntity
  8
Layer_1
 62
7
100
AcDbPolyline
 90
2
 70
0
 10
86.483000
 20
18.509396
 30
0.0
 10
88.292000
 20
16.678396
 30
0.0
  0
LWPOLYLINE
  5
14c
100
AcDbEntity
  8
Layer_1
 62
7
100
AcDbPolyline
 90
6
 70
1
 10
1.452496
 20
0.517596
 30
0.0
 10
0.681496
 20
0.517596
 30
0.0
 10
0.681496
 20
7.353596
 30
0.0
 10
1.452496
 20
7.353596
 30
0.0
 10
1.452496
 20
0.517596
 30
0.0
 10
1.452496
 20
0.517596
 30
0.0
  0
SPLINE
  5
14d
100
AcDbEntity
  8
Layer_1
 62
7
100
AcDbSpline
 70
8
 71
3
 72
8
 73
4
 74
0
 40
0
 40
0
 40
0
 40
0
 40
1
 40
1
 40
1
 40
1
 10
18.388696
 20
0.399996
 30
0.0
 10
16.415696
 20
0.399996
 30
0.0
 10
14.960696
 20
1.952996
 30
0.0
 10
14.960696
 20
3.924996
 30
0.0
  0
SPLINE
  5
14e
100
AcDbEntity
  8
Layer_1
 62
7
100
AcDbSpline
 70
8
 71
3
 72
8
 73
4
 74
0
 40
0
 40
0
 40
0
 40
0
 40
1
 40
1
 40
1
 40
1
 10
14.960696
 20
3.924996
 30
0.0
 10
14.960696
 20
5.878996
 30
0.0
 10
16.406696
 20
7.469996
 30
0.0
 10
18.417696
 20
7.469996
 30
0.0
  0
SPLINE
  5
14f
100
AcDbEntity
  8
Layer_1
 62
7
100
AcDbSpline
 70
8
 71
3
 72
8
 73
4
 74
0
 40
0
 40
0
 40
0
 40
0
 40
1
 40
1
 40
1
 40
1
 10
18.417696
 20
7.469996
 30
0.0
 10
19.658696
 20
7.469996
 30
0.0
 10
20.400696
 20
7.030996
 30
0.0
 10
21.083696
 20
6.385996
 30
0.0
  0
LWPOLYLINE
  5
150
100
AcDbEntity
  8
Layer_1
 62
7
100
AcDbPolyline
 90
12
 70
1
 10
10.532200
 20
7.353092
 30
0.0
 10
11.284200
 20
7.353092
 30
0.0
 10
11.284200
 20
0.517092
 30
0.0
 10
10.669200
 20
0.517092
 30
0.0
 10
6.255200
 20
6.123092
 30
0.0
 10
6.255200
 20
0.517092
 30
0.0
 10
5.503200
 20
0.517092
 30
0.0
 10
5.503200
 20
7.353092
 30
0.0
 10
6.225200
 20
7.353092
 30
0.0
 10
10.532200
 20
1.874092
 30
0.0
 10
10.532200
 20
7.353092
 30
0.0
 10
10.532200
 20
7.353092
 30
0.0
  0
SPLINE
  5
151
100
AcDbEntity
  8
Layer_1
 62
7
100
AcDbSpline
 70
8
 71
3
 72
8
 73
4
 74
0
 40
0
 40
0
 40
0
 40
0
 40
1
 40
1
 40
1
 40
1
 10
20.556696
 20
5.819996
 30
0.0
 10
19.980696
 20
6.366996
 30
0.0
 10
19.335696
 20
6.756996
 30
0.0
 10
18.408696
 20
6.756996
 30
0.0
  0
SPLINE
  5
152
100
AcDbEntity
  8
Layer_1
 62
7
100
AcDbSpline
 70
8
 71
3
 72
8
 73
4
 74
0
 40
0
 40
0
 40
0
 40
0
 40
1
 40
1
 40
1
 40
1
 10
18.408696
 20
6.756996
 30
0.0
 10
16.894696
 20
6.756996
 30
0.0
 10
15.761696
 20
5.536996
 30
0.0
 10
15.761696
 20
3.944996
 30
0.0
  0
SPLINE
  5
153
100
AcDbEntity
  8
Layer_1
 62
7
100
AcDbSpline
 70
8
 71
3
 72
8
 73
4
 74
0
 40
0
 40
0
 40
0
 40
0
 40
1
 40
1
 40
1
 40
1
 10
15.761696
 20
3.944996
 30
0.0
 10
15.761696
 20
2.352996
 30
0.0
 10
16.904696
 20
1.112996
 30
0.0
 10
18.408696
 20
1.112996
 30
0.0
  0
SPLINE
  5
154
100
AcDbEntity
  8
Layer_1
 62
7
100
AcDbSpline
 70
8
 71
3
 72
8
 73
4
 74
0
 40
0
 40
0
 40
0
 40
0
 40
1
 40
1
 40
1
 40
1
 10
18.408696
 20
1.112996
 30
0.0
 10
19.345696
 20
1.112996
 30
0.0
 10
19.960696
 20
1.473996
 30
0.0
 10
20.615696
 20
2.098996
 30
0.0
  0
LWPOLYLINE
  5
155
100
AcDbEntity
  8
Layer_1
 62
7
100
AcDbPolyline
 90
2
 70
0
 10
21.083696
 20
6.385996
 30
0.0
 10
20.556696
 20
5.819996
 30
0.0
  0
SPLINE
  5
156
100
AcDbEntity
  8
Layer_1
 62
7
100
AcDbSpline
 70
8
 71
3
 72
8
 73
4
 74
0
 40
0
 40
0
 40
0
 40
0
 40
1
 40
1
 40
1
 40
1
 10
21.122696
 20
1.600996
 30
0.0
 10
20.409696
 20
0.878996
 30
0.0
 10
19.628696
 20
0.399996
 30
0.0
 10
18.388696
 20
0.399996
 30
0.0
  0
SPLINE
  5
157
100
AcDbEntity
  8
Layer_1
 62
7
100
AcDbSpline
 70
8
 71
3
 72
8
 73
4
 74
0
 40
0
 40
0
 40
0
 40
0
 40
1
 40
1
 40
1
 40
1
 10
27.495096
 20
6.757396
 30
0.0
 10
25.932096
 20
6.757396
 30
0.0
 10
24.819096
 20
5.507396
 30
0.0
 10
24.819096
 20
3.944396
 30
0.0
  0
SPLINE
  5
158
100
AcDbEntity
  8
Layer_1
 62
7
100
AcDbSpline
 70
8
 71
3
 72
8
 73
4
 74
0
 40
0
 40
0
 40
0
 40
0
 40
1
 40
1
 40
1
 40
1
 10
24.819096
 20
3.944396
 30
0.0
 10
24.819096
 20
2.382396
 30
0.0
 10
25.952096
 20
1.112396
 30
0.0
 10
27.515096
 20
1.112396
 30
0.0
  0
SPLINE
  5
159
100
AcDbEntity
  8
Layer_1
 62
7
100
AcDbSpline
 70
8
 71
3
 72
8
 73
4
 74
0
 40
0
 40
0
 40
0
 40
0
 40
1
 40
1
 40
1
 40
1
 10
27.515096
 20
1.112396
 30
0.0
 10
29.077096
 20
1.112396
 30
0.0
 10
30.190096
 20
2.362396
 30
0.0
 10
30.190096
 20
3.925396
 30
0.0
  0
SPLINE
  5
15a
100
AcDbEntity
  8
Layer_1
 62
7
100
AcDbSpline
 70
8
 71
3
 72
8
 73
4
 74
0
 40
0
 40
0
 40
0
 40
0
 40
1
 40
1
 40
1
 40
1
 10
30.190096
 20
3.925396
 30
0.0
 10
30.190096
 20
5.487396
 30
0.0
 10
29.058096
 20
6.757396
 30
0.0
 10
27.495096
 20
6.757396
 30
0.0
  0
SPLINE
  5
15b
100
AcDbEntity
  8
Layer_1
 62
7
100
AcDbSpline
 70
8
 71
3
 72
8
 73
4
 74
0
 40
0
 40
0
 40
0
 40
0
 40
1
 40
1
 40
1
 40
1
 10
27.495096
 20
0.400396
 30
0.0
 10
25.415096
 20
0.400396
 30
0.0
 10
24.018096
 20
2.030396
 30
0.0
 10
24.018096
 20
3.925396
 30
0.0
  0
SPLINE
  5
15c
100
AcDbEntity
  8
Layer_1
 62
7
100
AcDbSpline
 70
8
 71
3
 72
8
 73
4
 74
0
 40
0
 40
0
 40
0
 40
0
 40
1
 40
1
 40
1
 40
1
 10
24.018096
 20
3.925396
 30
0.0
 10
24.018096
 20
5.819396
 30
0.0
 10
25.434096
 20
7.470396
 30
0.0
 10
27.515096
 20
7.470396
 30
0.0
  0
SPLINE
  5
15d
100
AcDbEntity
  8
Layer_1
 62
7
100
AcDbSpline
 70
8
 71
3
 72
8
 73
4
 74
0
 40
0
 40
0
 40
0
 40
0
 40
1
 40
1
 40
1
 40
1
 10
27.515096
 20
7.470396
 30
0.0
 10
29.595096
 20
7.470396
 30
0.0
 10
30.991096
 20
5.839396
 30
0.0
 10
30.991096
 20
3.944396
 30
0.0
  0
SPLINE
  5
15e
100
AcDbEntity
  8
Layer_1
 62
7
100
AcDbSpline
 70
8
 71
3
 72
8
 73
4
 74
0
 40
0
 40
0
 40
0
 40
0
 40
1
 40
1
 40
1
 40
1
 10
30.991096
 20
3.944396
 30
0.0
 10
30.991096
 20
2.050396
 30
0.0
 10
29.575096
 20
0.400396
 30
0.0
 10
27.495096
 20
0.400396
 30
0.0
  0
LWPOLYLINE
  5
15f
100
AcDbEntity
  8
Layer_1
 62
7
100
AcDbPolyline
 90
2
 70
0
 10
20.615696
 20
2.098996
 30
0.0
 10
21.122696
 20
1.600996
 30
0.0
  0
SPLINE
  5
160
100
AcDbEntity
  8
Layer_1
 62
7
100
AcDbSpline
 70
8
 71
3
 72
8
 73
4
 74
0
 40
0
 40
0
 40
0
 40
0
 40
1
 40
1
 40
1
 40
1
 10
37.538800
 20
3.867196
 30
0.0
 10
38.564800
 20
3.867196
 30
0.0
 10
39.296800
 20
4.394196
 30
0.0
 10
39.296800
 20
5.283196
 30
0.0
  0
SPLINE
  5
161
100
AcDbEntity
  8
Layer_1
 62
7
100
AcDbSpline
 70
8
 71
3
 72
8
 73
4
 74
0
 40
0
 40
0
 40
0
 40
0
 40
1
 40
1
 40
1
 40
1
 10
39.296800
 20
5.283196
 30
0.0
 10
39.296800
 20
6.132196
 30
0.0
 10
38.652800
 20
6.640196
 30
0.0
 10
37.548800
 20
6.640196
 30
0.0
  0
LWPOLYLINE
  5
162
100
AcDbEntity
  8
Layer_1
 62
7
100
AcDbPolyline
 90
4
 70
1
 10
37.548800
 20
6.640196
 30
0.0
 10
35.439800
 20
6.640196
 30
0.0
 10
35.439800
 20
3.867196
 30
0.0
 10
37.538800
 20
3.867196
 30
0.0
  0
SPLINE
  5
163
100
AcDbEntity
  8
Layer_1
 62
7
100
AcDbSpline
 70
8
 71
3
 72
8
 73
4
 74
0
 40
0
 40
0
 40
0
 40
0
 40
1
 40
1
 40
1
 40
1
 10
37.607800
 20
7.353196
 30
0.0
 10
39.111800
 20
7.353196
 30
0.0
 10
40.077800
 20
6.542196
 30
0.0
 10
40.077800
 20
5.312196
 30
0.0
  0
SPLINE
  5
164
100
AcDbEntity
  8
Layer_1
 62
7
100
AcDbSpline
 70
8
 71
3
 72
8
 73
4
 74
0
 40
0
 40
0
 40
0
 40
0
 40
1
 40
1
 40
1
 40
1
 10
40.077800
 20
5.312196
 30
0.0
 10
40.077800
 20
4.169196
 30
0.0
 10
39.296800
 20
3.505196
 30
0.0
 10
38.222800
 20
3.310196
 30
0.0
  0
LWPOLYLINE
  5
165
100
AcDbEntity
  8
Layer_1
 62
7
100
AcDbPolyline
 90
7
 70
1
 10
39.374800
 20
0.517196
 30
0.0
 10
37.392800
 20
3.173196
 30
0.0
 10
35.439800
 20
3.173196
 30
0.0
 10
35.439800
 20
0.517196
 30
0.0
 10
34.667800
 20
0.517196
 30
0.0
 10
34.667800
 20
7.353196
 30
0.0
 10
37.607800
 20
7.353196
 30
0.0
  0
LWPOLYLINE
  5
166
100
AcDbEntity
  8
Layer_1
 62
7
100
AcDbPolyline
 90
4
 70
1
 10
38.222800
 20
3.310196
 30
0.0
 10
40.321800
 20
0.517196
 30
0.0
 10
39.374800
 20
0.517196
 30
0.0
 10
39.374800
 20
0.517196
 30
0.0
  0
SPLINE
  5
167
100
AcDbEntity
  8
Layer_1
 62
7
100
AcDbSpline
 70
8
 71
3
 72
8
 73
4
 74
0
 40
0
 40
0
 40
0
 40
0
 40
1
 40
1
 40
1
 40
1
 10
46.236400
 20
3.632196
 30
0.0
 10
47.369400
 20
3.632196
 30
0.0
 10
48.111400
 20
4.238196
 30
0.0
 10
48.111400
 20
5.146196
 30
0.0
  0
SPLINE
  5
168
100
AcDbEntity
  8
Layer_1
 62
7
100
AcDbSpline
 70
8
 71
3
 72
8
 73
4
 74
0
 40
0
 40
0
 40
0
 40
0
 40
1
 40
1
 40
1
 40
1
 10
48.111400
 20
5.146196
 30
0.0
 10
48.111400
 20
6.132196
 30
0.0
 10
47.379400
 20
6.640196
 30
0.0
 10
46.275400
 20
6.640196
 30
0.0
  0
LWPOLYLINE
  5
169
100
AcDbEntity
  8
Layer_1
 62
7
100
AcDbPolyline
 90
4
 70
0
 10
46.275400
 20
6.640196
 30
0.0
 10
44.546400
 20
6.640196
 30
0.0
 10
44.546400
 20
3.632196
 30
0.0
 10
46.236400
 20
3.632196
 30
0.0
  0
SPLINE
  5
16a
100
AcDbEntity
  8
Layer_1
 62
7
100
AcDbSpline
 70
8
 71
3
 72
8
 73
4
 74
0
 40
0
 40
0
 40
0
 40
0
 40
1
 40
1
 40
1
 40
1
 10
46.334400
 20
7.353196
 30
0.0
 10
47.877400
 20
7.353196
 30
0.0
 10
48.892400
 20
6.533196
 30
0.0
 10
48.892400
 20
5.175196
 30
0.0
  0
SPLINE
  5
16b
100
AcDbEntity
  8
Layer_1
 62
7
100
AcDbSpline
 70
8
 71
3
 72
8
 73
4
 74
0
 40
0
 40
0
 40
0
 40
0
 40
1
 40
1
 40
1
 40
1
 10
48.892400
 20
5.175196
 30
0.0
 10
48.892400
 20
3.691196
 30
0.0
 10
47.662400
 20
2.929196
 30
0.0
 10
46.207400
 20
2.929196
 30
0.0
  0
SPLINE
  5
16c
100
AcDbEntity
  8
Layer_1
 62
7
100
AcDbSpline
 70
8
 71
3
 72
8
 73
4
 74
0
 40
0
 40
0
 40
0
 40
0
 40
1
 40
1
 40
1
 40
1
 10
55.519496
 20
6.757396
 30
0.0
 10
53.956496
 20
6.757396
 30
0.0
 10
52.843496
 20
5.507396
 30
0.0
 10
52.843496
 20
3.944396
 30
0.0
  0
SPLINE
  5
16d
100
AcDbEntity
  8
Layer_1
 62
7
100
AcDbSpline
 70
8
 71
3
 72
8
 73
4
 74
0
 40
0
 40
0
 40
0
 40
0
 40
1
 40
1
 40
1
 40
1
 10
52.843496
 20
3.944396
 30
0.0
 10
52.843496
 20
2.382396
 30
0.0
 10
53.976496
 20
1.112396
 30
0.0
 10
55.539496
 20
1.112396
 30
0.0
  0
SPLINE
  5
16e
100
AcDbEntity
  8
Layer_1
 62
7
100
AcDbSpline
 70
8
 71
3
 72
8
 73
4
 74
0
 40
0
 40
0
 40
0
 40
0
 40
1
 40
1
 40
1
 40
1
 10
55.539496
 20
1.112396
 30
0.0
 10
57.101496
 20
1.112396
 30
0.0
 10
58.214496
 20
2.362396
 30
0.0
 10
58.214496
 20
3.925396
 30
0.0
  0
SPLINE
  5
16f
100
AcDbEntity
  8
Layer_1
 62
7
100
AcDbSpline
 70
8
 71
3
 72
8
 73
4
 74
0
 40
0
 40
0
 40
0
 40
0
 40
1
 40
1
 40
1
 40
1
 10
58.214496
 20
3.925396
 30
0.0
 10
58.214496
 20
5.487396
 30
0.0
 10
57.082496
 20
6.757396
 30
0.0
 10
55.519496
 20
6.757396
 30
0.0
  0
SPLINE
  5
170
100
AcDbEntity
  8
Layer_1
 62
7
100
AcDbSpline
 70
8
 71
3
 72
8
 73
4
 74
0
 40
0
 40
0
 40
0
 40
0
 40
1
 40
1
 40
1
 40
1
 10
55.519496
 20
0.400396
 30
0.0
 10
53.439496
 20
0.400396
 30
0.0
 10
52.042496
 20
2.030396
 30
0.0
 10
52.042496
 20
3.925396
 30
0.0
  0
SPLINE
  5
171
100
AcDbEntity
  8
Layer_1
 62
7
100
AcDbSpline
 70
8
 71
3
 72
8
 73
4
 74
0
 40
0
 40
0
 40
0
 40
0
 40
1
 40
1
 40
1
 40
1
 10
52.042496
 20
3.925396
 30
0.0
 10
52.042496
 20
5.819396
 30
0.0
 10
53.458496
 20
7.470396
 30
0.0
 10
55.539496
 20
7.470396
 30
0.0
  0
SPLINE
  5
172
100
AcDbEntity
  8
Layer_1
 62
7
100
AcDbSpline
 70
8
 71
3
 72
8
 73
4
 74
0
 40
0
 40
0
 40
0
 40
0
 40
1
 40
1
 40
1
 40
1
 10
55.539496
 20
7.470396
 30
0.0
 10
57.619496
 20
7.470396
 30
0.0
 10
59.015496
 20
5.839396
 30
0.0
 10
59.015496
 20
3.944396
 30
0.0
  0
SPLINE
  5
173
100
AcDbEntity
  8
Layer_1
 62
7
100
AcDbSpline
 70
8
 71
3
 72
8
 73
4
 74
0
 40
0
 40
0
 40
0
 40
0
 40
1
 40
1
 40
1
 40
1
 10
59.015496
 20
3.944396
 30
0.0
 10
59.015496
 20
2.050396
 30
0.0
 10
57.599496
 20
0.400396
 30
0.0
 10
55.519496
 20
0.400396
 30
0.0
  0
LWPOLYLINE
  5
174
100
AcDbEntity
  8
Layer_1
 62
7
100
AcDbPolyline
 90
6
 70
0
 10
46.207400
 20
2.929196
 30
0.0
 10
44.546400
 20
2.929196
 30
0.0
 10
44.546400
 20
0.517196
 30
0.0
 10
43.775400
 20
0.517196
 30
0.0
 10
43.775400
 20
7.353196
 30
0.0
 10
46.334400
 20
7.353196
 30
0.0
  0
SPLINE
  5
175
100
AcDbEntity
  8
Layer_1
 62
7
100
AcDbSpline
 70
8
 71
3
 72
8
 73
4
 74
0
 40
0
 40
0
 40
0
 40
0
 40
1
 40
1
 40
1
 40
1
 10
65.563296
 20
3.867196
 30
0.0
 10
66.589296
 20
3.867196
 30
0.0
 10
67.321296
 20
4.394196
 30
0.0
 10
67.321296
 20
5.283196
 30
0.0
  0
SPLINE
  5
176
100
AcDbEntity
  8
Layer_1
 62
7
100
AcDbSpline
 70
8
 71
3
 72
8
 73
4
 74
0
 40
0
 40
0
 40
0
 40
0
 40
1
 40
1
 40
1
 40
1
 10
67.321296
 20
5.283196
 30
0.0
 10
67.321296
 20
6.132196
 30
0.0
 10
66.677296
 20
6.640196
 30
0.0
 10
65.573296
 20
6.640196
 30
0.0
  0
LWPOLYLINE
  5
177
100
AcDbEntity
  8
Layer_1
 62
7
100
AcDbPolyline
 90
4
 70
1
 10
65.573296
 20
6.640196
 30
0.0
 10
63.464296
 20
6.640196
 30
0.0
 10
63.464296
 20
3.867196
 30
0.0
 10
65.563296
 20
3.867196
 30
0.0
  0
SPLINE
  5
178
100
AcDbEntity
  8
Layer_1
 62
7
100
AcDbSpline
 70
8
 71
3
 72
8
 73
4
 74
0
 40
0
 40
0
 40
0
 40
0
 40
1
 40
1
 40
1
 40
1
 10
65.632296
 20
7.353196
 30
0.0
 10
67.136296
 20
7.353196
 30
0.0
 10
68.102296
 20
6.542196
 30
0.0
 10
68.102296
 20
5.312196
 30
0.0
  0
SPLINE
  5
179
100
AcDbEntity
  8
Layer_1
 62
7
100
AcDbSpline
 70
8
 71
3
 72
8
 73
4
 74
0
 40
0
 40
0
 40
0
 40
0
 40
1
 40
1
 40
1
 40
1
 10
68.102296
 20
5.312196
 30
0.0
 10
68.102296
 20
4.169196
 30
0.0
 10
67.321296
 20
3.505196
 30
0.0
 10
66.247296
 20
3.310196
 30
0.0
  0
LWPOLYLINE
  5
17a
100
AcDbEntity
  8
Layer_1
 62
7
100
AcDbPolyline
 90
7
 70
1
 10
67.399296
 20
0.517196
 30
0.0
 10
65.417296
 20
3.173196
 30
0.0
 10
63.464296
 20
3.173196
 30
0.0
 10
63.464296
 20
0.517196
 30
0.0
 10
62.692296
 20
0.517196
 30
0.0
 10
62.692296
 20
7.353196
 30
0.0
 10
65.632296
 20
7.353196
 30
0.0
  0
LWPOLYLINE
  5
17b
100
AcDbEntity
  8
Layer_1
 62
7
100
AcDbPolyline
 90
4
 70
1
 10
66.247296
 20
3.310196
 30
0.0
 10
68.346296
 20
0.517196
 30
0.0
 10
67.399296
 20
0.517196
 30
0.0
 10
67.399296
 20
0.517196
 30
0.0
  0
LWPOLYLINE
  5
17c
100
AcDbEntity
  8
Layer_1
 62
7
100
AcDbPolyline
 90
5
 70
1
 10
74.680696
 20
6.503492
 30
0.0
 10
73.117696
 20
3.017492
 30
0.0
 10
76.233696
 20
3.017492
 30
0.0
 10
74.680696
 20
6.503492
 30
0.0
 10
74.680696
 20
6.503492
 30
0.0
  0
LWPOLYLINE
  5
17d
100
AcDbEntity
  8
Layer_1
 62
7
100
AcDbPolyline
 90
10
 70
1
 10
78.166696
 20
0.517492
 30
0.0
 10
77.336696
 20
0.517492
 30
0.0
 10
76.535696
 20
2.323492
 30
0.0
 10
72.815696
 20
2.323492
 30
0.0
 10
72.004696
 20
0.517492
 30
0.0
 10
71.213696
 20
0.517492
 30
0.0
 10
74.328696
 20
7.401492
 30
0.0
 10
75.051696
 20
7.401492
 30
0.0
 10
78.166696
 20
0.517492
 30
0.0
 10
78.166696
 20
0.517492
 30
0.0
  0
LWPOLYLINE
  5
17e
100
AcDbEntity
  8
Layer_1
 62
7
100
AcDbPolyline
 90
10
 70
1
 10
83.268600
 20
0.517196
 30
0.0
 10
82.487600
 20
0.517196
 30
0.0
 10
82.487600
 20
6.640196
 30
0.0
 10
80.192600
 20
6.640196
 30
0.0
 10
80.192600
 20
7.353196
 30
0.0
 10
85.563600
 20
7.353196
 30
0.0
 10
85.563600
 20
6.640196
 30
0.0
 10
83.268600
 20
6.640196
 30
0.0
 10
83.268600
 20
0.517196
 30
0.0
 10
83.268600
 20
0.517196
 30
0.0
  0
LWPOLYLINE
  5
17f
100
AcDbEntity
  8
Layer_1
 62
7
100
AcDbPolyline
 90
14
 70
1
 10
93.997104
 20
6.649996
 30
0.0
 10
89.827104
 20
6.649996
 30
0.0
 10
89.827104
 20
4.315996
 30
0.0
 10
93.558104
 20
4.315996
 30
0.0
 10
93.558104
 20
3.612996
 30
0.0
 10
89.827104
 20
3.612996
 30
0.0
 10
89.827104
 20
1.219996
 30
0.0
 10
94.046104
 20
1.219996
 30
0.0
 10
94.046104
 20
0.516996
 30
0.0
 10
89.056104
 20
0.516996
 30
0.0
 10
89.056104
 20
7.352996
 30
0.0
 10
93.997104
 20
7.352996
 30
0.0
 10
93.997104
 20
6.649996
 30
0.0
 10
93.997104
 20
6.649996
 30
0.0
  0
SPLINE
  5
180
100
AcDbEntity
  8
Layer_1
 62
7
100
AcDbSpline
 70
8
 71
3
 72
8
 73
4
 74
0
 40
0
 40
0
 40
0
 40
0
 40
1
 40
1
 40
1
 40
1
 10
100.018600
 20
1.230196
 30
0.0
 10
101.747600
 20
1.230196
 30
0.0
 10
102.850600
 20
2.402196
 30
0.0
 10
102.850600
 20
3.925196
 30
0.0
  0
SPLINE
  5
181
100
AcDbEntity
  8
Layer_1
 62
7
100
AcDbSpline
 70
8
 71
3
 72
8
 73
4
 74
0
 40
0
 40
0
 40
0
 40
0
 40
1
 40
1
 40
1
 40
1
 10
102.850600
 20
3.925196
 30
0.0
 10
102.850600
 20
5.449196
 30
0.0
 10
101.747600
 20
6.640196
 30
0.0
 10
100.018600
 20
6.640196
 30
0.0
  0
LWPOLYLINE
  5
182
100
AcDbEntity
  8
Layer_1
 62
7
100
AcDbPolyline
 90
4
 70
0
 10
100.018600
 20
6.640196
 30
0.0
 10
98.416600
 20
6.640196
 30
0.0
 10
98.416600
 20
1.230196
 30
0.0
 10
100.018600
 20
1.230196
 30
0.0
  0
SPLINE
  5
183
100
AcDbEntity
  8
Layer_1
 62
7
100
AcDbSpline
 70
8
 71
3
 72
8
 73
4
 74
0
 40
0
 40
0
 40
0
 40
0
 40
1
 40
1
 40
1
 40
1
 10
100.018600
 20
7.353196
 30
0.0
 10
102.166600
 20
7.353196
 30
0.0
 10
103.651600
 20
5.878196
 30
0.0
 10
103.651600
 20
3.945196
 30
0.0
  0
SPLINE
  5
184
100
AcDbEntity
  8
Layer_1
 62
7
100
AcDbSpline
 70
8
 71
3
 72
8
 73
4
 74
0
 40
0
 40
0
 40
0
 40
0
 40
1
 40
1
 40
1
 40
1
 10
103.651600
 20
3.945196
 30
0.0
 10
103.651600
 20
2.011196
 30
0.0
 10
102.166600
 20
0.517196
 30
0.0
 10
100.018600
 20
0.517196
 30
0.0
  0
LWPOLYLINE
  5
185
100
AcDbEntity
  8
Layer_1
 62
7
100
AcDbPolyline
 90
4
 70
0
 10
100.018600
 20
0.517196
 30
0.0
 10
97.645600
 20
0.517196
 30
0.0
 10
97.645600
 20
7.353196
 30
0.0
 10
100.018600
 20
7.353196
 30
0.0
  0
ENDSEC
  0
SECTION
  2
OBJECTS
  0
DICTIONARY
  5
C
330
0
100
AcDbDictionary
  3
ACAD_GROUP
350
D
  3
ACAD_MLINESTYLE
350
17
  0
DICTIONARY
  5
D
330
C
100
AcDbDictionary
  0
DICTIONARY
  5
1A
330
C
100
AcDbDictionary
  0
DICTIONARY
  5
17
330
C
100
AcDbDictionary
  3
STANDARD
350
18
  0
DICTIONARY
  5
19
330
C
100
AcDbDictionary
  0
ENDSEC
  0
EOF
